<mxfile host="app.diagrams.net" modified="2024-03-07T21:36:53.740Z" agent="Mozilla/5.0 (Macintosh; Intel Mac OS X 10_15_7) AppleWebKit/537.36 (KHTML, like Gecko) Chrome/119.0.0.0 Safari/537.36" version="24.0.2" etag="X64qAoiYNGK2fqBD_W-I" type="github">
  <diagram name="Page-1" id="9EDNcSKQxJpN7psF5ttS">
    <mxGraphModel>
      <root>
        <mxCell id="0" />
        <mxCell id="1" parent="0" />
      </root>
    </mxGraphModel>
  </diagram>
</mxfile>
